<mxfile host="app.diagrams.net" modified="2024-03-03T20:18:17.402Z" agent="Mozilla/5.0 (Windows NT 10.0; Win64; x64) AppleWebKit/537.36 (KHTML, like Gecko) Chrome/121.0.0.0 Safari/537.36 OPR/107.0.0.0" etag="H5I1Zr1PMasPm0XW0SqJ" version="24.0.1" type="device">
  <diagram name="Page-1" id="yIkeN9_FzvJPRinh7ijT">
    <mxGraphModel dx="4610" dy="2095" grid="1" gridSize="10" guides="1" tooltips="1" connect="1" arrows="1" fold="1" page="1" pageScale="1" pageWidth="850" pageHeight="1100" math="0" shadow="0">
      <root>
        <mxCell id="0" />
        <mxCell id="1" parent="0" />
        <mxCell id="6k1vFv25WIqJITEVbqrb-5" value="" style="rounded=0;whiteSpace=wrap;html=1;" vertex="1" parent="1">
          <mxGeometry y="20" width="440" height="1870" as="geometry" />
        </mxCell>
        <mxCell id="6k1vFv25WIqJITEVbqrb-6" value="" style="rounded=0;whiteSpace=wrap;html=1;" vertex="1" parent="1">
          <mxGeometry width="440" height="270" as="geometry" />
        </mxCell>
        <mxCell id="6k1vFv25WIqJITEVbqrb-9" value="" style="verticalLabelPosition=bottom;shadow=0;dashed=0;align=center;html=1;verticalAlign=top;strokeWidth=1;shape=mxgraph.mockup.misc.map;" vertex="1" parent="1">
          <mxGeometry width="440" height="270" as="geometry" />
        </mxCell>
        <mxCell id="6k1vFv25WIqJITEVbqrb-137" style="edgeStyle=orthogonalEdgeStyle;rounded=0;orthogonalLoop=1;jettySize=auto;html=1;exitX=0;exitY=0.5;exitDx=0;exitDy=0;entryX=1;entryY=0.5;entryDx=0;entryDy=0;" edge="1" parent="1" source="6k1vFv25WIqJITEVbqrb-7" target="6k1vFv25WIqJITEVbqrb-136">
          <mxGeometry relative="1" as="geometry" />
        </mxCell>
        <mxCell id="6k1vFv25WIqJITEVbqrb-7" value="" style="rounded=1;whiteSpace=wrap;html=1;fillColor=#050505;strokeColor=#FFFFFF;" vertex="1" parent="1">
          <mxGeometry x="135" y="105" width="170" height="60" as="geometry" />
        </mxCell>
        <mxCell id="6k1vFv25WIqJITEVbqrb-8" value="QR_Caching" style="text;html=1;align=center;verticalAlign=middle;whiteSpace=wrap;rounded=0;fontStyle=1;fontColor=#000000;fontSize=19;fontFamily=Verdana;" vertex="1" parent="1">
          <mxGeometry x="100" y="15" width="60" height="30" as="geometry" />
        </mxCell>
        <mxCell id="6k1vFv25WIqJITEVbqrb-10" value="" style="shape=image;html=1;verticalAlign=top;verticalLabelPosition=bottom;labelBackgroundColor=#ffffff;imageAspect=0;aspect=fixed;image=https://cdn1.iconfinder.com/data/icons/ionicons-outline-vol-2/512/qr-code-outline-128.png" vertex="1" parent="1">
          <mxGeometry width="60" height="60" as="geometry" />
        </mxCell>
        <mxCell id="6k1vFv25WIqJITEVbqrb-38" value="" style="rounded=1;whiteSpace=wrap;html=1;strokeColor=#FFFFFF;fillColor=#000000;" vertex="1" parent="1">
          <mxGeometry x="280" y="10" width="70" height="25" as="geometry" />
        </mxCell>
        <mxCell id="6k1vFv25WIqJITEVbqrb-39" value="" style="rounded=1;whiteSpace=wrap;html=1;strokeColor=#FFFFFF;fillColor=#000000;" vertex="1" parent="1">
          <mxGeometry x="360" y="10" width="70" height="25" as="geometry" />
        </mxCell>
        <mxCell id="6k1vFv25WIqJITEVbqrb-40" value="Login" style="text;html=1;align=center;verticalAlign=middle;whiteSpace=wrap;rounded=0;fontColor=#FFFFFF;" vertex="1" parent="1">
          <mxGeometry x="292.5" y="16.25" width="45" height="12.5" as="geometry" />
        </mxCell>
        <mxCell id="6k1vFv25WIqJITEVbqrb-41" value="Sign Up" style="text;html=1;align=center;verticalAlign=middle;whiteSpace=wrap;rounded=0;fontColor=#FFFFFF;" vertex="1" parent="1">
          <mxGeometry x="372.5" y="16.25" width="45" height="12.5" as="geometry" />
        </mxCell>
        <mxCell id="6k1vFv25WIqJITEVbqrb-42" value="" style="rounded=0;whiteSpace=wrap;html=1;" vertex="1" parent="1">
          <mxGeometry y="380" width="440" height="160" as="geometry" />
        </mxCell>
        <mxCell id="6k1vFv25WIqJITEVbqrb-43" value="" style="group" vertex="1" connectable="0" parent="1">
          <mxGeometry y="220" width="440" height="160" as="geometry" />
        </mxCell>
        <mxCell id="6k1vFv25WIqJITEVbqrb-28" value="" style="rounded=0;whiteSpace=wrap;html=1;fillColor=#f5f5f5;strokeColor=#666666;fontColor=#333333;" vertex="1" parent="6k1vFv25WIqJITEVbqrb-43">
          <mxGeometry y="50" width="440" height="110" as="geometry" />
        </mxCell>
        <mxCell id="6k1vFv25WIqJITEVbqrb-31" value="" style="group" vertex="1" connectable="0" parent="6k1vFv25WIqJITEVbqrb-43">
          <mxGeometry x="345" width="80" height="150" as="geometry" />
        </mxCell>
        <mxCell id="6k1vFv25WIqJITEVbqrb-22" value="" style="verticalLabelPosition=bottom;verticalAlign=top;html=1;shadow=0;dashed=0;strokeWidth=1;shape=mxgraph.ios.iBgMap;strokeColor=#18211b;strokeColor2=#008cff;fillColor2=#96D1FF;" vertex="1" parent="6k1vFv25WIqJITEVbqrb-31">
          <mxGeometry x="3" y="13" width="74" height="124" as="geometry" />
        </mxCell>
        <mxCell id="6k1vFv25WIqJITEVbqrb-19" value="" style="verticalLabelPosition=bottom;verticalAlign=top;html=1;shadow=0;dashed=0;strokeWidth=1;shape=mxgraph.android.phone2;strokeColor=#c0c0c0;fillColor=#000000;" vertex="1" parent="6k1vFv25WIqJITEVbqrb-31">
          <mxGeometry width="80" height="150" as="geometry" />
        </mxCell>
        <mxCell id="6k1vFv25WIqJITEVbqrb-24" value="" style="rounded=1;whiteSpace=wrap;html=1;fillColor=#050505;strokeColor=#23445d;" vertex="1" parent="6k1vFv25WIqJITEVbqrb-31">
          <mxGeometry x="10" y="60" width="60" height="30" as="geometry" />
        </mxCell>
        <mxCell id="6k1vFv25WIqJITEVbqrb-27" value="&lt;font style=&quot;font-size: 9px;&quot;&gt;&lt;b&gt;QR_Caching&lt;/b&gt;&lt;/font&gt;" style="text;html=1;align=center;verticalAlign=middle;whiteSpace=wrap;rounded=0;fontColor=#FFFFFF;" vertex="1" parent="6k1vFv25WIqJITEVbqrb-31">
          <mxGeometry x="25" y="70" width="30" height="10" as="geometry" />
        </mxCell>
        <mxCell id="6k1vFv25WIqJITEVbqrb-32" value="" style="shape=image;verticalLabelPosition=bottom;labelBackgroundColor=default;verticalAlign=top;aspect=fixed;imageAspect=0;image=https://www.geocaching.com/play/app/ui-images/components/app-store-list/badge-google-play.png;" vertex="1" parent="6k1vFv25WIqJITEVbqrb-43">
          <mxGeometry x="122.5" y="130" width="67.5" height="20" as="geometry" />
        </mxCell>
        <mxCell id="6k1vFv25WIqJITEVbqrb-33" value="" style="shape=image;verticalLabelPosition=bottom;labelBackgroundColor=default;verticalAlign=top;aspect=fixed;imageAspect=0;image=https://www.geocaching.com/play/app/ui-images/components/app-store-list/badge-apple.svg;" vertex="1" parent="6k1vFv25WIqJITEVbqrb-43">
          <mxGeometry x="50" y="130" width="65" height="19.26" as="geometry" />
        </mxCell>
        <mxCell id="6k1vFv25WIqJITEVbqrb-35" value="&lt;b&gt;There are XXX Qrcodes in Lisbon&lt;/b&gt;" style="text;html=1;align=center;verticalAlign=middle;whiteSpace=wrap;rounded=0;" vertex="1" parent="6k1vFv25WIqJITEVbqrb-43">
          <mxGeometry x="37" y="61" width="210" height="30" as="geometry" />
        </mxCell>
        <mxCell id="6k1vFv25WIqJITEVbqrb-36" value="Download our app to get the best experience of your life" style="text;html=1;align=center;verticalAlign=middle;whiteSpace=wrap;rounded=0;" vertex="1" parent="6k1vFv25WIqJITEVbqrb-43">
          <mxGeometry x="45" y="88" width="160" height="30" as="geometry" />
        </mxCell>
        <mxCell id="6k1vFv25WIqJITEVbqrb-45" value="Create your route" style="text;html=1;align=center;verticalAlign=middle;whiteSpace=wrap;rounded=0;fontColor=#FFFFFF;fontStyle=1;fontSize=17;" vertex="1" parent="1">
          <mxGeometry x="145" y="120" width="150" height="30" as="geometry" />
        </mxCell>
        <mxCell id="6k1vFv25WIqJITEVbqrb-46" value="3 Steps to begin your adventure" style="text;html=1;align=center;verticalAlign=middle;whiteSpace=wrap;rounded=0;fontStyle=1" vertex="1" parent="1">
          <mxGeometry x="36" y="390" width="220" height="30" as="geometry" />
        </mxCell>
        <mxCell id="6k1vFv25WIqJITEVbqrb-48" value="" style="sketch=0;pointerEvents=1;shadow=0;dashed=0;html=1;strokeColor=none;labelPosition=center;verticalLabelPosition=bottom;verticalAlign=top;align=center;fillColor=#505050;shape=mxgraph.mscae.intune.account_portal" vertex="1" parent="1">
          <mxGeometry x="50" y="440" width="43" height="50" as="geometry" />
        </mxCell>
        <mxCell id="6k1vFv25WIqJITEVbqrb-49" value="1- Create your account" style="text;html=1;align=center;verticalAlign=middle;whiteSpace=wrap;rounded=0;" vertex="1" parent="1">
          <mxGeometry x="10.25" y="490" width="124.75" height="30" as="geometry" />
        </mxCell>
        <mxCell id="6k1vFv25WIqJITEVbqrb-50" value="" style="verticalLabelPosition=bottom;verticalAlign=top;html=1;shadow=0;dashed=0;strokeWidth=1;shape=mxgraph.android.phone2;strokeColor=#c0c0c0;fillColor=#000000;" vertex="1" parent="1">
          <mxGeometry x="205" y="430" width="30" height="60" as="geometry" />
        </mxCell>
        <mxCell id="6k1vFv25WIqJITEVbqrb-51" value="2- Find a QrCode" style="text;html=1;align=center;verticalAlign=middle;whiteSpace=wrap;rounded=0;" vertex="1" parent="1">
          <mxGeometry x="165" y="490" width="110" height="30" as="geometry" />
        </mxCell>
        <mxCell id="6k1vFv25WIqJITEVbqrb-52" value="" style="html=1;verticalLabelPosition=bottom;align=center;labelBackgroundColor=#ffffff;verticalAlign=top;strokeWidth=2;strokeColor=#000000;shadow=0;dashed=0;shape=mxgraph.ios7.icons.camera;fillColor=#FFFFFF;" vertex="1" parent="1">
          <mxGeometry x="337.5" y="443.3" width="52" height="33.4" as="geometry" />
        </mxCell>
        <mxCell id="6k1vFv25WIqJITEVbqrb-53" value="3- Take a foto" style="text;html=1;align=center;verticalAlign=middle;whiteSpace=wrap;rounded=0;" vertex="1" parent="1">
          <mxGeometry x="307" y="490" width="110" height="30" as="geometry" />
        </mxCell>
        <mxCell id="6k1vFv25WIqJITEVbqrb-54" value="" style="rounded=0;whiteSpace=wrap;html=1;fillColor=#f5f5f5;fontColor=#333333;strokeColor=#666666;" vertex="1" parent="1">
          <mxGeometry y="540" width="440" height="180" as="geometry" />
        </mxCell>
        <mxCell id="6k1vFv25WIqJITEVbqrb-55" value="" style="rounded=1;whiteSpace=wrap;html=1;" vertex="1" parent="1">
          <mxGeometry x="15.120000000000001" y="590" width="115" height="110" as="geometry" />
        </mxCell>
        <mxCell id="6k1vFv25WIqJITEVbqrb-56" value="" style="rounded=1;whiteSpace=wrap;html=1;" vertex="1" parent="1">
          <mxGeometry x="145" y="590" width="115" height="110" as="geometry" />
        </mxCell>
        <mxCell id="6k1vFv25WIqJITEVbqrb-57" value="" style="rounded=1;whiteSpace=wrap;html=1;" vertex="1" parent="1">
          <mxGeometry x="274.5" y="590" width="115" height="110" as="geometry" />
        </mxCell>
        <mxCell id="6k1vFv25WIqJITEVbqrb-119" style="edgeStyle=orthogonalEdgeStyle;rounded=0;orthogonalLoop=1;jettySize=auto;html=1;exitX=1;exitY=0.5;exitDx=0;exitDy=0;entryX=0.5;entryY=1;entryDx=0;entryDy=0;" edge="1" parent="1" source="6k1vFv25WIqJITEVbqrb-58" target="6k1vFv25WIqJITEVbqrb-109">
          <mxGeometry relative="1" as="geometry" />
        </mxCell>
        <mxCell id="6k1vFv25WIqJITEVbqrb-58" value="" style="rounded=1;whiteSpace=wrap;html=1;" vertex="1" parent="1">
          <mxGeometry x="404" y="590" width="36" height="110" as="geometry" />
        </mxCell>
        <mxCell id="6k1vFv25WIqJITEVbqrb-59" value="See all the Main Events" style="text;html=1;align=center;verticalAlign=middle;whiteSpace=wrap;rounded=0;fontStyle=1;fontSize=17;" vertex="1" parent="1">
          <mxGeometry x="122.5" y="550" width="195" height="30" as="geometry" />
        </mxCell>
        <mxCell id="6k1vFv25WIqJITEVbqrb-60" value="" style="image;aspect=fixed;perimeter=ellipsePerimeter;html=1;align=center;shadow=0;dashed=0;fontColor=#4277BB;labelBackgroundColor=default;fontSize=12;spacingTop=3;image=img/lib/ibm/devops/build_test.svg;" vertex="1" parent="1">
          <mxGeometry x="43" y="615" width="60" height="60" as="geometry" />
        </mxCell>
        <mxCell id="6k1vFv25WIqJITEVbqrb-61" value="" style="outlineConnect=0;dashed=0;verticalLabelPosition=bottom;verticalAlign=top;align=center;html=1;shape=mxgraph.aws3.codebuild;fillColor=#759C3E;gradientColor=none;" vertex="1" parent="1">
          <mxGeometry x="165" y="599" width="76.5" height="93" as="geometry" />
        </mxCell>
        <mxCell id="6k1vFv25WIqJITEVbqrb-62" value="" style="editableCssRules=.*;html=1;shape=image;verticalLabelPosition=bottom;labelBackgroundColor=#ffffff;verticalAlign=top;aspect=fixed;imageAspect=0;image=data:image/svg+xml,PHN2ZyB4bWxucz0iaHR0cDovL3d3dy53My5vcmcvMjAwMC9zdmciIHhtbG5zOnY9Imh0dHBzOi8vdmVjdGEuaW8vbmFubyIgd2lkdGg9IjE3LjMyOTk5OTkyMzcwNjA1NSIgaGVpZ2h0PSIxOS42MTAwMDA2MTAzNTE1NjIiIHZpZXdCb3g9IjAgMCAxNy4zMjk5OTk5MjM3MDYwNTUgMTkuNjEwMDAwNjEwMzUxNTYyIj4mI3hhOwk8c3R5bGUgdHlwZT0idGV4dC9jc3MiPiYjeGE7CS5zdDB7ZmlsbDojNDI4NWY0O30mI3hhOwkuc3Qxe2ZpbGw6IzY2OWRmNjt9JiN4YTsJLnN0MntmaWxsOiNhZWNiZmE7fSYjeGE7CTwvc3R5bGU+JiN4YTsJPHBhdGggY2xhc3M9InN0MCIgZD0iTTEyLjE4IDcuOThMMTEgNy4yOWwtMy41MiA2LjEgMS4xOC42OCAzLjUyLTIuMDN6IiBmaWxsPSIjNDI4NWY0Ii8+JiN4YTsJPHBhdGggY2xhc3M9InN0MSIgZD0iTTYuMzIgMTIuNzJsMy41My02LjA5LTEuMTktLjY5LTMuNTIgMi4wNHY0LjA2eiIgZmlsbD0iIzY2OWRmNiIvPiYjeGE7CTxwYXRoIGNsYXNzPSJzdDIiIGQ9Ik0zLjc1IDcuOThMMCA1LjgxdjkuMmw3Ljk3IDQuNnYtNC4zM2wtNC4yMi0yLjQ0em05LjEzLTEuMmwzLjc2LTIuMTdMOC42NiAwIC42OCA0LjYxbDMuNzYgMi4xNyA0LjIyLTIuNDR6TTkuMzUgMTkuNjFsNy45OC00LjZ2LTkuMmwtMy43NiAyLjE3djQuODZsLTQuMjIgMi40NHoiIGZpbGw9IiNhZWNiZmEiLz4mI3hhOzwvc3ZnPg==;" vertex="1" parent="1">
          <mxGeometry x="305" y="609" width="56.1" height="66" as="geometry" />
        </mxCell>
        <mxCell id="6k1vFv25WIqJITEVbqrb-64" value="" style="html=1;shadow=0;dashed=0;align=center;verticalAlign=middle;shape=mxgraph.arrows2.arrow;dy=0.51;dx=18.52;notch=0;fillColor=#000000;" vertex="1" parent="1">
          <mxGeometry x="407" y="631" width="30" height="29" as="geometry" />
        </mxCell>
        <mxCell id="6k1vFv25WIqJITEVbqrb-70" value="" style="group" vertex="1" connectable="0" parent="1">
          <mxGeometry y="1765" width="440" height="125" as="geometry" />
        </mxCell>
        <mxCell id="6k1vFv25WIqJITEVbqrb-71" value="" style="group" vertex="1" connectable="0" parent="6k1vFv25WIqJITEVbqrb-70">
          <mxGeometry width="440" height="125" as="geometry" />
        </mxCell>
        <mxCell id="6k1vFv25WIqJITEVbqrb-65" value="" style="rounded=0;whiteSpace=wrap;html=1;fillColor=#f5f5f5;gradientColor=#b3b3b3;strokeColor=#666666;" vertex="1" parent="6k1vFv25WIqJITEVbqrb-71">
          <mxGeometry width="440" height="100" as="geometry" />
        </mxCell>
        <mxCell id="6k1vFv25WIqJITEVbqrb-66" value="" style="rounded=0;whiteSpace=wrap;html=1;fillColor=#999999;" vertex="1" parent="6k1vFv25WIqJITEVbqrb-71">
          <mxGeometry y="100" width="440" height="24" as="geometry" />
        </mxCell>
        <mxCell id="6k1vFv25WIqJITEVbqrb-67" value="Copyright Tex" style="text;html=1;align=center;verticalAlign=middle;whiteSpace=wrap;rounded=0;" vertex="1" parent="6k1vFv25WIqJITEVbqrb-71">
          <mxGeometry x="175" y="95" width="90" height="30" as="geometry" />
        </mxCell>
        <mxCell id="6k1vFv25WIqJITEVbqrb-68" value="Information and contacts" style="text;html=1;align=center;verticalAlign=middle;whiteSpace=wrap;rounded=0;" vertex="1" parent="6k1vFv25WIqJITEVbqrb-71">
          <mxGeometry x="180" y="35" width="80" height="30" as="geometry" />
        </mxCell>
        <mxCell id="6k1vFv25WIqJITEVbqrb-77" value="" style="group" vertex="1" connectable="0" parent="1">
          <mxGeometry x="40.5" y="790" width="359" height="350" as="geometry" />
        </mxCell>
        <mxCell id="6k1vFv25WIqJITEVbqrb-73" value="" style="verticalLabelPosition=bottom;verticalAlign=top;html=1;shadow=0;dashed=0;strokeWidth=1;shape=mxgraph.ios.iBgMap;strokeColor=#d6b656;strokeColor2=#008cff;fillColor2=#96D1FF;fillColor=#fff2cc;gradientColor=#ffd966;" vertex="1" parent="6k1vFv25WIqJITEVbqrb-77">
          <mxGeometry width="359" height="350" as="geometry" />
        </mxCell>
        <mxCell id="6k1vFv25WIqJITEVbqrb-74" value="" style="sketch=0;html=1;aspect=fixed;strokeColor=#B20000;shadow=0;fillColor=#e51400;verticalAlign=top;labelPosition=center;verticalLabelPosition=bottom;shape=mxgraph.gcp2.maps_api;fontColor=#ffffff;" vertex="1" parent="6k1vFv25WIqJITEVbqrb-77">
          <mxGeometry x="22" y="20" width="30.5" height="50" as="geometry" />
        </mxCell>
        <mxCell id="6k1vFv25WIqJITEVbqrb-75" value="" style="sketch=0;html=1;aspect=fixed;strokeColor=#B20000;shadow=0;fillColor=#e51400;verticalAlign=top;labelPosition=center;verticalLabelPosition=bottom;shape=mxgraph.gcp2.maps_api;fontColor=#ffffff;" vertex="1" parent="6k1vFv25WIqJITEVbqrb-77">
          <mxGeometry x="290.1" y="180" width="30.5" height="50" as="geometry" />
        </mxCell>
        <mxCell id="6k1vFv25WIqJITEVbqrb-76" value="" style="sketch=0;html=1;aspect=fixed;strokeColor=#B20000;shadow=0;fillColor=#e51400;verticalAlign=top;labelPosition=center;verticalLabelPosition=bottom;shape=mxgraph.gcp2.maps_api;fontColor=#ffffff;" vertex="1" parent="6k1vFv25WIqJITEVbqrb-77">
          <mxGeometry x="51.5" y="260" width="30.5" height="50" as="geometry" />
        </mxCell>
        <mxCell id="6k1vFv25WIqJITEVbqrb-80" value="" style="rounded=1;whiteSpace=wrap;html=1;" vertex="1" parent="1">
          <mxGeometry x="160" y="732.5" width="120" height="45" as="geometry" />
        </mxCell>
        <mxCell id="6k1vFv25WIqJITEVbqrb-78" value="QrCode Map" style="text;html=1;align=center;verticalAlign=middle;whiteSpace=wrap;rounded=0;fontStyle=1" vertex="1" parent="1">
          <mxGeometry x="180" y="740" width="80" height="30" as="geometry" />
        </mxCell>
        <mxCell id="6k1vFv25WIqJITEVbqrb-82" value="" style="rounded=0;whiteSpace=wrap;html=1;fillColor=#f5f5f5;fontColor=#333333;strokeColor=#666666;" vertex="1" parent="1">
          <mxGeometry y="1180" width="440" height="180" as="geometry" />
        </mxCell>
        <mxCell id="6k1vFv25WIqJITEVbqrb-83" value="" style="rounded=1;whiteSpace=wrap;html=1;" vertex="1" parent="1">
          <mxGeometry x="15.120000000000001" y="1230" width="115" height="110" as="geometry" />
        </mxCell>
        <mxCell id="6k1vFv25WIqJITEVbqrb-84" value="" style="rounded=1;whiteSpace=wrap;html=1;" vertex="1" parent="1">
          <mxGeometry x="145" y="1230" width="115" height="110" as="geometry" />
        </mxCell>
        <mxCell id="6k1vFv25WIqJITEVbqrb-85" value="" style="rounded=1;whiteSpace=wrap;html=1;" vertex="1" parent="1">
          <mxGeometry x="274.5" y="1230" width="115" height="110" as="geometry" />
        </mxCell>
        <mxCell id="6k1vFv25WIqJITEVbqrb-86" value="" style="rounded=1;whiteSpace=wrap;html=1;" vertex="1" parent="1">
          <mxGeometry x="404" y="1230" width="36" height="110" as="geometry" />
        </mxCell>
        <mxCell id="6k1vFv25WIqJITEVbqrb-87" value="" style="html=1;shadow=0;dashed=0;align=center;verticalAlign=middle;shape=mxgraph.arrows2.arrow;dy=0.51;dx=18.52;notch=0;fillColor=#000000;" vertex="1" parent="1">
          <mxGeometry x="407" y="1271" width="30" height="29" as="geometry" />
        </mxCell>
        <mxCell id="6k1vFv25WIqJITEVbqrb-88" value="" style="shape=image;html=1;verticalAlign=top;verticalLabelPosition=bottom;labelBackgroundColor=#ffffff;imageAspect=0;aspect=fixed;image=https://cdn2.iconfinder.com/data/icons/font-awesome/1792/qrcode-128.png" vertex="1" parent="1">
          <mxGeometry x="34" y="1246.5" width="78" height="78" as="geometry" />
        </mxCell>
        <mxCell id="6k1vFv25WIqJITEVbqrb-89" value="" style="shape=image;html=1;verticalAlign=top;verticalLabelPosition=bottom;labelBackgroundColor=#ffffff;imageAspect=0;aspect=fixed;image=https://cdn2.iconfinder.com/data/icons/font-awesome/1792/qrcode-128.png" vertex="1" parent="1">
          <mxGeometry x="164.25" y="1246.5" width="78" height="78" as="geometry" />
        </mxCell>
        <mxCell id="6k1vFv25WIqJITEVbqrb-90" value="" style="shape=image;html=1;verticalAlign=top;verticalLabelPosition=bottom;labelBackgroundColor=#ffffff;imageAspect=0;aspect=fixed;image=https://cdn2.iconfinder.com/data/icons/font-awesome/1792/qrcode-128.png" vertex="1" parent="1">
          <mxGeometry x="293" y="1246.5" width="78" height="78" as="geometry" />
        </mxCell>
        <mxCell id="6k1vFv25WIqJITEVbqrb-92" value="See all QrCodes" style="text;html=1;align=center;verticalAlign=middle;whiteSpace=wrap;rounded=0;fontStyle=1;fontSize=17;" vertex="1" parent="1">
          <mxGeometry x="122.5" y="1190" width="195" height="30" as="geometry" />
        </mxCell>
        <mxCell id="6k1vFv25WIqJITEVbqrb-93" value="" style="rounded=0;whiteSpace=wrap;html=1;" vertex="1" parent="1">
          <mxGeometry x="470" width="440" height="320" as="geometry" />
        </mxCell>
        <mxCell id="6k1vFv25WIqJITEVbqrb-98" value="" style="verticalLabelPosition=bottom;shadow=0;dashed=0;align=center;html=1;verticalAlign=top;strokeWidth=1;shape=mxgraph.mockup.misc.map;" vertex="1" parent="1">
          <mxGeometry x="470" width="440" height="320" as="geometry" />
        </mxCell>
        <mxCell id="6k1vFv25WIqJITEVbqrb-95" value="" style="rounded=1;whiteSpace=wrap;html=1;" vertex="1" parent="1">
          <mxGeometry x="630" y="77.5" width="120" height="165" as="geometry" />
        </mxCell>
        <mxCell id="6k1vFv25WIqJITEVbqrb-96" value="" style="shape=image;html=1;verticalAlign=top;verticalLabelPosition=bottom;labelBackgroundColor=#ffffff;imageAspect=0;aspect=fixed;image=https://cdn1.iconfinder.com/data/icons/ionicons-outline-vol-2/512/qr-code-outline-128.png" vertex="1" parent="1">
          <mxGeometry x="470" width="60" height="60" as="geometry" />
        </mxCell>
        <mxCell id="6k1vFv25WIqJITEVbqrb-97" value="QR_Caching" style="text;html=1;align=center;verticalAlign=middle;whiteSpace=wrap;rounded=0;fontStyle=1;fontColor=#000000;fontSize=19;fontFamily=Verdana;" vertex="1" parent="1">
          <mxGeometry x="570" y="16.25" width="60" height="30" as="geometry" />
        </mxCell>
        <mxCell id="6k1vFv25WIqJITEVbqrb-99" value="" style="rounded=0;whiteSpace=wrap;html=1;" vertex="1" parent="1">
          <mxGeometry x="930" width="440" height="320" as="geometry" />
        </mxCell>
        <mxCell id="6k1vFv25WIqJITEVbqrb-100" value="" style="verticalLabelPosition=bottom;shadow=0;dashed=0;align=center;html=1;verticalAlign=top;strokeWidth=1;shape=mxgraph.mockup.misc.map;" vertex="1" parent="1">
          <mxGeometry x="930" width="440" height="320" as="geometry" />
        </mxCell>
        <mxCell id="6k1vFv25WIqJITEVbqrb-101" value="" style="rounded=1;whiteSpace=wrap;html=1;" vertex="1" parent="1">
          <mxGeometry x="1090" y="77.5" width="120" height="165" as="geometry" />
        </mxCell>
        <mxCell id="6k1vFv25WIqJITEVbqrb-102" value="" style="shape=image;html=1;verticalAlign=top;verticalLabelPosition=bottom;labelBackgroundColor=#ffffff;imageAspect=0;aspect=fixed;image=https://cdn1.iconfinder.com/data/icons/ionicons-outline-vol-2/512/qr-code-outline-128.png" vertex="1" parent="1">
          <mxGeometry x="930" width="60" height="60" as="geometry" />
        </mxCell>
        <mxCell id="6k1vFv25WIqJITEVbqrb-103" value="QR_Caching" style="text;html=1;align=center;verticalAlign=middle;whiteSpace=wrap;rounded=0;fontStyle=1;fontColor=#000000;fontSize=19;fontFamily=Verdana;" vertex="1" parent="1">
          <mxGeometry x="1030" y="16.25" width="60" height="30" as="geometry" />
        </mxCell>
        <mxCell id="6k1vFv25WIqJITEVbqrb-104" value="" style="rounded=1;whiteSpace=wrap;html=1;strokeColor=#FFFFFF;fillColor=#000000;" vertex="1" parent="1">
          <mxGeometry x="655" y="147.5" width="70" height="25" as="geometry" />
        </mxCell>
        <mxCell id="6k1vFv25WIqJITEVbqrb-105" value="Login" style="text;html=1;align=center;verticalAlign=middle;whiteSpace=wrap;rounded=0;fontColor=#FFFFFF;" vertex="1" parent="1">
          <mxGeometry x="667.5" y="153.75" width="45" height="12.5" as="geometry" />
        </mxCell>
        <mxCell id="6k1vFv25WIqJITEVbqrb-106" value="" style="rounded=1;whiteSpace=wrap;html=1;strokeColor=#FFFFFF;fillColor=#000000;" vertex="1" parent="1">
          <mxGeometry x="1115" y="147.5" width="70" height="25" as="geometry" />
        </mxCell>
        <mxCell id="6k1vFv25WIqJITEVbqrb-107" value="Sign Up" style="text;html=1;align=center;verticalAlign=middle;whiteSpace=wrap;rounded=0;fontColor=#FFFFFF;" vertex="1" parent="1">
          <mxGeometry x="1127.5" y="153.75" width="45" height="12.5" as="geometry" />
        </mxCell>
        <mxCell id="6k1vFv25WIqJITEVbqrb-109" value="" style="rounded=0;whiteSpace=wrap;html=1;" vertex="1" parent="1">
          <mxGeometry x="470" y="340" width="440" height="320" as="geometry" />
        </mxCell>
        <mxCell id="6k1vFv25WIqJITEVbqrb-110" value="" style="rounded=0;whiteSpace=wrap;html=1;" vertex="1" parent="1">
          <mxGeometry x="930" y="340" width="440" height="320" as="geometry" />
        </mxCell>
        <mxCell id="6k1vFv25WIqJITEVbqrb-112" style="edgeStyle=orthogonalEdgeStyle;rounded=0;orthogonalLoop=1;jettySize=auto;html=1;exitX=0.5;exitY=1;exitDx=0;exitDy=0;entryX=-0.003;entryY=0.495;entryDx=0;entryDy=0;entryPerimeter=0;" edge="1" parent="1" source="6k1vFv25WIqJITEVbqrb-40" target="6k1vFv25WIqJITEVbqrb-98">
          <mxGeometry relative="1" as="geometry" />
        </mxCell>
        <mxCell id="6k1vFv25WIqJITEVbqrb-116" style="edgeStyle=orthogonalEdgeStyle;rounded=0;orthogonalLoop=1;jettySize=auto;html=1;exitX=0.5;exitY=1;exitDx=0;exitDy=0;entryX=0;entryY=0.213;entryDx=0;entryDy=0;entryPerimeter=0;" edge="1" parent="1" source="6k1vFv25WIqJITEVbqrb-41" target="6k1vFv25WIqJITEVbqrb-100">
          <mxGeometry relative="1" as="geometry" />
        </mxCell>
        <mxCell id="6k1vFv25WIqJITEVbqrb-120" value="" style="editableCssRules=.*;html=1;shape=image;verticalLabelPosition=bottom;labelBackgroundColor=#ffffff;verticalAlign=top;aspect=fixed;imageAspect=0;image=data:image/svg+xml,PHN2ZyB4bWxucz0iaHR0cDovL3d3dy53My5vcmcvMjAwMC9zdmciIHhtbG5zOnY9Imh0dHBzOi8vdmVjdGEuaW8vbmFubyIgd2lkdGg9IjE3LjMyOTk5OTkyMzcwNjA1NSIgaGVpZ2h0PSIxOS42MTAwMDA2MTAzNTE1NjIiIHZpZXdCb3g9IjAgMCAxNy4zMjk5OTk5MjM3MDYwNTUgMTkuNjEwMDAwNjEwMzUxNTYyIj4mI3hhOwk8c3R5bGUgdHlwZT0idGV4dC9jc3MiPiYjeGE7CS5zdDB7ZmlsbDojNDI4NWY0O30mI3hhOwkuc3Qxe2ZpbGw6IzY2OWRmNjt9JiN4YTsJLnN0MntmaWxsOiNhZWNiZmE7fSYjeGE7CTwvc3R5bGU+JiN4YTsJPHBhdGggY2xhc3M9InN0MCIgZD0iTTEyLjE4IDcuOThMMTEgNy4yOWwtMy41MiA2LjEgMS4xOC42OCAzLjUyLTIuMDN6IiBmaWxsPSIjNDI4NWY0Ii8+JiN4YTsJPHBhdGggY2xhc3M9InN0MSIgZD0iTTYuMzIgMTIuNzJsMy41My02LjA5LTEuMTktLjY5LTMuNTIgMi4wNHY0LjA2eiIgZmlsbD0iIzY2OWRmNiIvPiYjeGE7CTxwYXRoIGNsYXNzPSJzdDIiIGQ9Ik0zLjc1IDcuOThMMCA1LjgxdjkuMmw3Ljk3IDQuNnYtNC4zM2wtNC4yMi0yLjQ0em05LjEzLTEuMmwzLjc2LTIuMTdMOC42NiAwIC42OCA0LjYxbDMuNzYgMi4xNyA0LjIyLTIuNDR6TTkuMzUgMTkuNjFsNy45OC00LjZ2LTkuMmwtMy43NiAyLjE3djQuODZsLTQuMjIgMi40NHoiIGZpbGw9IiNhZWNiZmEiLz4mI3hhOzwvc3ZnPg==;" vertex="1" parent="1">
          <mxGeometry x="661.95" y="400" width="56.1" height="66" as="geometry" />
        </mxCell>
        <mxCell id="6k1vFv25WIqJITEVbqrb-121" value="Event Name" style="text;html=1;align=center;verticalAlign=middle;whiteSpace=wrap;rounded=0;fontStyle=1;fontSize=19;" vertex="1" parent="1">
          <mxGeometry x="627.5" y="360" width="125" height="30" as="geometry" />
        </mxCell>
        <mxCell id="6k1vFv25WIqJITEVbqrb-123" value="" style="rounded=0;whiteSpace=wrap;html=1;fillColor=#f5f5f5;fontColor=#333333;strokeColor=#666666;" vertex="1" parent="1">
          <mxGeometry x="470" y="510" width="440" height="150" as="geometry" />
        </mxCell>
        <mxCell id="6k1vFv25WIqJITEVbqrb-124" value="" style="rounded=1;whiteSpace=wrap;html=1;" vertex="1" parent="1">
          <mxGeometry x="485.12" y="530" width="115" height="110" as="geometry" />
        </mxCell>
        <mxCell id="6k1vFv25WIqJITEVbqrb-125" value="" style="rounded=1;whiteSpace=wrap;html=1;" vertex="1" parent="1">
          <mxGeometry x="615" y="530" width="115" height="110" as="geometry" />
        </mxCell>
        <mxCell id="6k1vFv25WIqJITEVbqrb-126" value="" style="rounded=1;whiteSpace=wrap;html=1;" vertex="1" parent="1">
          <mxGeometry x="744.5" y="530" width="115" height="110" as="geometry" />
        </mxCell>
        <mxCell id="6k1vFv25WIqJITEVbqrb-127" value="" style="rounded=1;whiteSpace=wrap;html=1;" vertex="1" parent="1">
          <mxGeometry x="874" y="530" width="36" height="110" as="geometry" />
        </mxCell>
        <mxCell id="6k1vFv25WIqJITEVbqrb-128" value="" style="html=1;shadow=0;dashed=0;align=center;verticalAlign=middle;shape=mxgraph.arrows2.arrow;dy=0.51;dx=18.52;notch=0;fillColor=#000000;" vertex="1" parent="1">
          <mxGeometry x="877" y="571" width="30" height="29" as="geometry" />
        </mxCell>
        <mxCell id="6k1vFv25WIqJITEVbqrb-129" value="" style="shape=image;html=1;verticalAlign=top;verticalLabelPosition=bottom;labelBackgroundColor=#ffffff;imageAspect=0;aspect=fixed;image=https://cdn2.iconfinder.com/data/icons/font-awesome/1792/qrcode-128.png" vertex="1" parent="1">
          <mxGeometry x="504" y="546.5" width="78" height="78" as="geometry" />
        </mxCell>
        <mxCell id="6k1vFv25WIqJITEVbqrb-130" value="" style="shape=image;html=1;verticalAlign=top;verticalLabelPosition=bottom;labelBackgroundColor=#ffffff;imageAspect=0;aspect=fixed;image=https://cdn2.iconfinder.com/data/icons/font-awesome/1792/qrcode-128.png" vertex="1" parent="1">
          <mxGeometry x="634.25" y="546.5" width="78" height="78" as="geometry" />
        </mxCell>
        <mxCell id="6k1vFv25WIqJITEVbqrb-131" value="" style="shape=image;html=1;verticalAlign=top;verticalLabelPosition=bottom;labelBackgroundColor=#ffffff;imageAspect=0;aspect=fixed;image=https://cdn2.iconfinder.com/data/icons/font-awesome/1792/qrcode-128.png" vertex="1" parent="1">
          <mxGeometry x="763" y="546.5" width="78" height="78" as="geometry" />
        </mxCell>
        <mxCell id="6k1vFv25WIqJITEVbqrb-132" value="" style="html=1;verticalLabelPosition=bottom;align=center;labelBackgroundColor=#ffffff;verticalAlign=top;strokeWidth=2;strokeColor=#0080F0;shadow=0;dashed=0;shape=mxgraph.ios7.icons.map;" vertex="1" parent="1">
          <mxGeometry x="870" y="466" width="30" height="30" as="geometry" />
        </mxCell>
        <mxCell id="6k1vFv25WIqJITEVbqrb-133" style="edgeStyle=orthogonalEdgeStyle;rounded=0;orthogonalLoop=1;jettySize=auto;html=1;entryX=0.002;entryY=0.44;entryDx=0;entryDy=0;entryPerimeter=0;" edge="1" parent="1" source="6k1vFv25WIqJITEVbqrb-132" target="6k1vFv25WIqJITEVbqrb-110">
          <mxGeometry relative="1" as="geometry" />
        </mxCell>
        <mxCell id="6k1vFv25WIqJITEVbqrb-134" value="" style="verticalLabelPosition=bottom;verticalAlign=top;html=1;shadow=0;dashed=0;strokeWidth=1;shape=mxgraph.ios.iBgMap;strokeColor=#18211b;strokeColor2=#008cff;fillColor2=#96D1FF;" vertex="1" parent="1">
          <mxGeometry x="1020" y="407.5" width="245" height="195" as="geometry" />
        </mxCell>
        <mxCell id="6k1vFv25WIqJITEVbqrb-135" value="&lt;b style=&quot;font-size: 17px;&quot;&gt;Event Map&lt;/b&gt;" style="text;html=1;align=center;verticalAlign=middle;whiteSpace=wrap;rounded=0;fontSize=17;" vertex="1" parent="1">
          <mxGeometry x="1101.25" y="360" width="92.5" height="30" as="geometry" />
        </mxCell>
        <mxCell id="6k1vFv25WIqJITEVbqrb-136" value="" style="rounded=0;whiteSpace=wrap;html=1;" vertex="1" parent="1">
          <mxGeometry x="-470" y="1" width="440" height="269" as="geometry" />
        </mxCell>
        <mxCell id="6k1vFv25WIqJITEVbqrb-138" value="" style="verticalLabelPosition=bottom;shadow=0;dashed=0;align=center;html=1;verticalAlign=top;strokeWidth=1;shape=mxgraph.mockup.misc.map;" vertex="1" parent="1">
          <mxGeometry x="-350" width="320" height="270" as="geometry" />
        </mxCell>
        <mxCell id="6k1vFv25WIqJITEVbqrb-140" value="" style="sketch=0;html=1;aspect=fixed;strokeColor=#B20000;shadow=0;fillColor=#e51400;verticalAlign=top;labelPosition=center;verticalLabelPosition=bottom;shape=mxgraph.gcp2.maps_api;fontColor=#ffffff;" vertex="1" parent="1">
          <mxGeometry x="-280" y="105" width="18.3" height="30" as="geometry" />
        </mxCell>
        <mxCell id="6k1vFv25WIqJITEVbqrb-141" value="" style="sketch=0;html=1;aspect=fixed;strokeColor=#B20000;shadow=0;fillColor=#e51400;verticalAlign=top;labelPosition=center;verticalLabelPosition=bottom;shape=mxgraph.gcp2.maps_api;fontColor=#ffffff;" vertex="1" parent="1">
          <mxGeometry x="-120" y="165" width="18.3" height="30" as="geometry" />
        </mxCell>
        <mxCell id="6k1vFv25WIqJITEVbqrb-142" value="" style="sketch=0;html=1;aspect=fixed;strokeColor=#B20000;shadow=0;fillColor=#e51400;verticalAlign=top;labelPosition=center;verticalLabelPosition=bottom;shape=mxgraph.gcp2.maps_api;fontColor=#ffffff;" vertex="1" parent="1">
          <mxGeometry x="-160" y="20" width="18.3" height="30" as="geometry" />
        </mxCell>
        <mxCell id="6k1vFv25WIqJITEVbqrb-143" value="" style="rounded=1;whiteSpace=wrap;html=1;" vertex="1" parent="1">
          <mxGeometry x="-450" y="15" width="90" height="20" as="geometry" />
        </mxCell>
        <mxCell id="6k1vFv25WIqJITEVbqrb-145" value="" style="sketch=0;pointerEvents=1;shadow=0;dashed=0;html=1;strokeColor=none;labelPosition=center;verticalLabelPosition=bottom;verticalAlign=top;align=center;fillColor=#505050;shape=mxgraph.mscae.oms.log_search" vertex="1" parent="1">
          <mxGeometry x="-445" y="17.5" width="20" height="15" as="geometry" />
        </mxCell>
        <mxCell id="6k1vFv25WIqJITEVbqrb-146" value="" style="endArrow=none;dashed=1;html=1;dashPattern=1 3;strokeWidth=2;rounded=0;entryX=0.609;entryY=0.179;entryDx=0;entryDy=0;entryPerimeter=0;" edge="1" parent="1" target="6k1vFv25WIqJITEVbqrb-138">
          <mxGeometry width="50" height="50" relative="1" as="geometry">
            <mxPoint x="-260" y="120" as="sourcePoint" />
            <mxPoint x="-201.76" y="59.629999999999995" as="targetPoint" />
          </mxGeometry>
        </mxCell>
        <mxCell id="6k1vFv25WIqJITEVbqrb-147" value="" style="endArrow=none;dashed=1;html=1;dashPattern=1 3;strokeWidth=2;rounded=0;exitX=0.187;exitY=0.768;exitDx=0;exitDy=0;exitPerimeter=0;" edge="1" parent="1" source="6k1vFv25WIqJITEVbqrb-141">
          <mxGeometry width="50" height="50" relative="1" as="geometry">
            <mxPoint x="-181.7" y="130" as="sourcePoint" />
            <mxPoint x="-261.7" y="135" as="targetPoint" />
          </mxGeometry>
        </mxCell>
        <mxCell id="6k1vFv25WIqJITEVbqrb-149" value="" style="shape=image;html=1;verticalAlign=top;verticalLabelPosition=bottom;labelBackgroundColor=#ffffff;imageAspect=0;aspect=fixed;image=https://cdn2.iconfinder.com/data/icons/font-awesome/1792/qrcode-128.png" vertex="1" parent="1">
          <mxGeometry x="-450" y="60" width="40" height="40" as="geometry" />
        </mxCell>
        <mxCell id="6k1vFv25WIqJITEVbqrb-150" value="" style="shape=image;html=1;verticalAlign=top;verticalLabelPosition=bottom;labelBackgroundColor=#ffffff;imageAspect=0;aspect=fixed;image=https://cdn2.iconfinder.com/data/icons/font-awesome/1792/qrcode-128.png" vertex="1" parent="1">
          <mxGeometry x="-450" y="100" width="40" height="40" as="geometry" />
        </mxCell>
        <mxCell id="6k1vFv25WIqJITEVbqrb-151" value="" style="shape=image;html=1;verticalAlign=top;verticalLabelPosition=bottom;labelBackgroundColor=#ffffff;imageAspect=0;aspect=fixed;image=https://cdn2.iconfinder.com/data/icons/font-awesome/1792/qrcode-128.png" vertex="1" parent="1">
          <mxGeometry x="-450" y="140" width="40" height="40" as="geometry" />
        </mxCell>
        <mxCell id="6k1vFv25WIqJITEVbqrb-158" value="" style="group" vertex="1" connectable="0" parent="1">
          <mxGeometry x="-440" y="184" width="20" height="20" as="geometry" />
        </mxCell>
        <mxCell id="6k1vFv25WIqJITEVbqrb-156" value="" style="rounded=1;whiteSpace=wrap;html=1;" vertex="1" parent="6k1vFv25WIqJITEVbqrb-158">
          <mxGeometry width="20" height="20" as="geometry" />
        </mxCell>
        <mxCell id="6k1vFv25WIqJITEVbqrb-154" value="&lt;b&gt;&lt;font style=&quot;font-size: 16px;&quot;&gt;+&lt;/font&gt;&lt;/b&gt;" style="text;html=1;align=center;verticalAlign=middle;whiteSpace=wrap;rounded=0;" vertex="1" parent="6k1vFv25WIqJITEVbqrb-158">
          <mxGeometry x="7.5" y="2.5" width="5" height="15" as="geometry" />
        </mxCell>
        <mxCell id="6k1vFv25WIqJITEVbqrb-160" value="Name" style="text;html=1;align=center;verticalAlign=middle;whiteSpace=wrap;rounded=0;" vertex="1" parent="1">
          <mxGeometry x="-410" y="65" width="40" height="30" as="geometry" />
        </mxCell>
        <mxCell id="6k1vFv25WIqJITEVbqrb-161" value="Name" style="text;html=1;align=center;verticalAlign=middle;whiteSpace=wrap;rounded=0;" vertex="1" parent="1">
          <mxGeometry x="-410" y="105" width="40" height="30" as="geometry" />
        </mxCell>
        <mxCell id="6k1vFv25WIqJITEVbqrb-162" value="Name" style="text;html=1;align=center;verticalAlign=middle;whiteSpace=wrap;rounded=0;" vertex="1" parent="1">
          <mxGeometry x="-410" y="145" width="40" height="30" as="geometry" />
        </mxCell>
        <mxCell id="6k1vFv25WIqJITEVbqrb-164" value="&lt;b&gt;&lt;font style=&quot;font-size: 19px;&quot;&gt;Maybe a shop&lt;/font&gt;&lt;/b&gt;" style="text;html=1;align=center;verticalAlign=middle;whiteSpace=wrap;rounded=0;" vertex="1" parent="1">
          <mxGeometry x="172.5" y="1530" width="95" height="30" as="geometry" />
        </mxCell>
      </root>
    </mxGraphModel>
  </diagram>
</mxfile>
